<?xml version="1.0" encoding="UTF-8" standalone="no"?>
<svg
   xmlns:dc="http://purl.org/dc/elements/1.1/"
   xmlns:cc="http://creativecommons.org/ns#"
   xmlns:rdf="http://www.w3.org/1999/02/22-rdf-syntax-ns#"
   xmlns:svg="http://www.w3.org/2000/svg"
   xmlns="http://www.w3.org/2000/svg"
   xmlns:sodipodi="http://sodipodi.sourceforge.net/DTD/sodipodi-0.dtd"
   xmlns:inkscape="http://www.inkscape.org/namespaces/inkscape"
   width="50"
   height="50"
   viewBox="0 0 50 50"
   version="1.1"
   id="svg8"
   sodipodi:docname="icon.svg"
   inkscape:version="1.0.2-2 (e86c870879, 2021-01-15)">
  <metadata
     id="metadata14">
    <rdf:RDF>
      <cc:Work
         rdf:about="">
        <dc:format>image/svg+xml</dc:format>
        <dc:type
           rdf:resource="http://purl.org/dc/dcmitype/StillImage" />
      </cc:Work>
    </rdf:RDF>
  </metadata>
  <defs
     id="defs12" />
  <sodipodi:namedview
     pagecolor="#ffffff"
     bordercolor="#666666"
     borderopacity="1"
     objecttolerance="10"
     gridtolerance="10"
     guidetolerance="10"
     inkscape:pageopacity="0"
     inkscape:pageshadow="2"
     inkscape:window-width="1849"
     inkscape:window-height="1222"
     id="namedview10"
     showgrid="false"
     inkscape:zoom="7.2880595"
     inkscape:cx="25"
     inkscape:cy="7.5790718"
     inkscape:window-x="595"
     inkscape:window-y="69"
     inkscape:window-maximized="0"
     inkscape:current-layer="svg8" />
  <path
     style="fill:#985184;fill-opacity:1;stroke-width:0.0962136"
     d="M 10.467858,43.288284 C 7.4461127,42.969751 4.9627158,41.79385 4.2400403,40.339382 L 4.0129397,39.882315 V 25.209748 10.537181 L 4.2199929,10.152326 C 4.5141914,9.6054917 5.0819305,9.0697437 5.696677,8.7588497 c 0.291046,-0.14719 4.663952,-2.056134 9.717569,-4.242097 6.630631,-2.8681083 9.283936,-3.9729183 9.531614,-3.9688713 0.449707,0.0073 0.731066,0.166257 0.960452,0.542457 0.167121,0.274084 0.186957,0.493623 0.187279,2.072745 2.88e-4,1.3736423 -0.02637,1.7558903 -0.119907,1.7198473 -0.06615,-0.02549 -0.608651,-0.253679 -1.205565,-0.507089 L 23.68282,3.9150974 20.294189,5.3780307 C 18.430441,6.1826437 14.622348,7.8241477 11.83176,9.0258187 9.0411728,10.22749 6.7573035,11.240783 6.7564954,11.27758 c -0.00292,0.133191 1.4108396,0.755404 2.1281761,0.936634 1.7877985,0.451673 3.5836525,0.458329 4.9624075,0.01839 0.512363,-0.163486 3.231363,-1.331249 14.792021,-6.3529153 2.679596,-1.16395 4.345614,-1.836924 4.547503,-1.836924 0.433108,0 0.97762,0.501041 1.045613,0.962136 l 0.04966,0.336747 -4.406655,1.897177 C 19.237567,11.818606 16.677557,12.946009 16.124253,13.294616 c -0.98814,0.622573 -1.779923,1.589209 -2.192177,2.67629 -0.200201,0.527913 -0.201894,0.621831 -0.249674,13.857093 l -0.04811,13.325577 -0.865922,0.112904 c -0.994722,0.129697 -1.253711,0.132151 -2.300515,0.0218 z"
     id="path863" />
  <path
     style="fill:#1ad3bb;fill-opacity:1;stroke-width:0.0962136"
     d="M 22.678369,49.645917 C 19.627451,49.365939 17.147316,48.195966 16.406424,46.687203 L 16.135847,46.136197 V 31.511736 16.887275 l 0.208371,-0.389179 c 0.249909,-0.466759 0.931164,-1.114333 1.441749,-1.370468 0.2037,-0.102188 1.907377,-0.847939 3.785946,-1.657225 1.87857,-0.809287 6.056644,-2.619345 9.284609,-4.0223513 4.154592,-1.805757 5.969725,-2.549967 6.213746,-2.547655 0.415809,0.0039 0.818023,0.249761 1.007188,0.615566 0.189051,0.365583 0.206678,3.7894753 0.01914,3.7168053 -0.06615,-0.02563 -0.609307,-0.251968 -1.207022,-0.502969 l -1.086756,-0.456366 -5.503873,2.379445 c -10.28378,4.445904 -11.276637,4.879235 -11.360714,4.958372 -0.132503,0.124717 1.01248,0.65295 1.971794,0.90968 1.85308,0.495916 3.622784,0.518033 5.059966,0.06324 0.306308,-0.09693 4.726115,-1.97963 9.821792,-4.183772 5.095676,-2.204143 9.3538,-4.007534 9.462494,-4.007534 0.410216,0 0.872359,0.313014 1.054616,0.714303 0.170745,0.375936 0.178196,0.982724 0.180223,14.673543 0.0021,14.2258 0.0013,14.282984 -0.196098,14.690838 -0.143888,0.297233 -0.308692,0.462055 -0.601335,0.6014 -1.512296,0.720099 -18.731774,8.114406 -19.266821,8.273467 -0.665332,0.197795 -2.139663,0.407951 -2.68814,0.383178 -0.158752,-0.0072 -0.635009,-0.04482 -1.058349,-0.08367 z"
     id="path855" />
  <path
     style="fill:#005e7a;fill-opacity:1;stroke-width:0.0962136"
     d="m 26.671887,35.485791 c 0.108694,0 4.367215,-1.80367 9.462891,-4.007813 4.780358,-2.06775 8.462256,-3.630825 9.214844,-3.923827 -0.01118,-5.867283 -0.03869,-8.122 -0.166016,-8.402344 -0.182257,-0.401289 -0.644472,-0.714844 -1.054688,-0.714844 -0.108693,0 -4.367214,1.803669 -9.46289,4.007813 -4.780358,2.06775 -8.462256,3.630826 -9.214844,3.923828 0.01118,5.866406 0.04065,8.122014 0.167969,8.402343 0.182257,0.401289 0.642518,0.714844 1.052734,0.714844 z"
     id="path909" />
</svg>
